<svg width="24" height="25" viewBox="0 0 24 25" fill="none" xmlns="http://www.w3.org/2000/svg">
<path d="M19.8513 8.01349L9.50982 18.3549C9.41823 18.4473 9.29355 18.4992 9.16348 18.4992C9.03341 18.4992 8.90873 18.4473 8.81714 18.3549L3.5586 13.0964C3.46625 13.0049 3.41431 12.8802 3.41431 12.75C3.41431 12.62 3.46625 12.4953 3.5586 12.4037L4.24153 11.7208C4.33312 11.6285 4.4578 11.5765 4.58787 11.5765C4.71794 11.5765 4.84262 11.6285 4.93421 11.7208L9.1586 15.9452L18.4757 6.62813C18.6686 6.44101 18.9754 6.44101 19.1684 6.62813L19.8513 7.32081C19.9437 7.4124 19.9956 7.53708 19.9956 7.66715C19.9956 7.79722 19.9437 7.92189 19.8513 8.01349Z" fill="#D6D6D6"/>
</svg>
